<?xml version="1.0" encoding="iso-8859-1"?>
<!-- Generator: Adobe Illustrator 19.1.0, SVG Export Plug-In . SVG Version: 6.00 Build 0)  -->
<svg version="1.1" id="Capa_1" xmlns="http://www.w3.org/2000/svg" xmlns:xlink="http://www.w3.org/1999/xlink" x="0px" y="0px"
	 viewBox="0 0 492.206 492.206" style="enable-background:new 0 0 492.206 492.206;" xml:space="preserve">
<g>
	<path fill="rgba(0, 0, 0, 0.6)" d="M469.277,474.203L255.338,5.254c-1.314-2.809-3.961-4.789-7.039-5.185c-3.06-0.379-6.157,0.828-8.119,3.222l-25.491,31.036
		l0.014,0.011c-0.602,0.731-1.104,1.556-1.455,2.474L45.051,474.203H7.568v18.003h90.013v-18.003H64.357l76.144-198.028h178.984
		l90.351,198.028h-15.212v18.003h90.013v-18.003H469.277z M147.424,258.172l74.933-194.879l88.914,194.879H147.424z M232.175,41.413
		l12.758-15.529l204.545,448.319h-19.842L232.175,41.413z"/>
</g>
<g>
</g>
<g>
</g>
<g>
</g>
<g>
</g>
<g>
</g>
<g>
</g>
<g>
</g>
<g>
</g>
<g>
</g>
<g>
</g>
<g>
</g>
<g>
</g>
<g>
</g>
<g>
</g>
<g>
</g>
</svg>
